<mxfile host="app.diagrams.net" modified="2024-06-28T06:47:04.386Z" agent="Mozilla/5.0 (Windows NT 10.0; Win64; x64) AppleWebKit/537.36 (KHTML, like Gecko) Chrome/126.0.0.0 Safari/537.36" etag="VAjErHlnjfEqFC-P2XzE" version="24.6.3" type="device">
  <diagram name="Page-1" id="R1JQ_o4AmmS1xaOfTYaX">
    <mxGraphModel dx="1285" dy="772" grid="1" gridSize="10" guides="1" tooltips="1" connect="1" arrows="1" fold="1" page="1" pageScale="1" pageWidth="827" pageHeight="1169" math="0" shadow="0">
      <root>
        <mxCell id="0" />
        <mxCell id="1" parent="0" />
        <mxCell id="szmvQJgR_3cwjk-QeN5G-2" value="" style="swimlane;startSize=0;" vertex="1" parent="1">
          <mxGeometry x="159" y="90" width="520" height="1390" as="geometry" />
        </mxCell>
        <mxCell id="szmvQJgR_3cwjk-QeN5G-8" value="Emergency Notifications&amp;nbsp;&lt;span style=&quot;background-color: initial;&quot;&gt;with Guuidlines&lt;/span&gt;" style="ellipse;whiteSpace=wrap;html=1;" vertex="1" parent="szmvQJgR_3cwjk-QeN5G-2">
          <mxGeometry x="131" y="30" width="209" height="50" as="geometry" />
        </mxCell>
        <mxCell id="szmvQJgR_3cwjk-QeN5G-9" value="Regular Notifications Alerts" style="ellipse;whiteSpace=wrap;html=1;" vertex="1" parent="szmvQJgR_3cwjk-QeN5G-2">
          <mxGeometry x="131" y="100" width="209" height="40" as="geometry" />
        </mxCell>
        <mxCell id="szmvQJgR_3cwjk-QeN5G-10" value="Offline Mode for Critical Information" style="ellipse;whiteSpace=wrap;html=1;" vertex="1" parent="szmvQJgR_3cwjk-QeN5G-2">
          <mxGeometry x="131" y="160" width="209" height="40" as="geometry" />
        </mxCell>
        <mxCell id="szmvQJgR_3cwjk-QeN5G-11" value="Community Reporting and Feedback" style="ellipse;whiteSpace=wrap;html=1;" vertex="1" parent="szmvQJgR_3cwjk-QeN5G-2">
          <mxGeometry x="131" y="210" width="209" height="40" as="geometry" />
        </mxCell>
        <mxCell id="szmvQJgR_3cwjk-QeN5G-12" value="Emergency Contact List&lt;span style=&quot;color: rgba(0, 0, 0, 0); font-family: monospace; font-size: 0px; text-align: start; text-wrap: nowrap;&quot;&gt;%3CmxGraphModel%3E%3Croot%3E%3CmxCell%20id%3D%220%22%2F%3E%3CmxCell%20id%3D%221%22%20parent%3D%220%22%2F%3E%3CmxCell%20id%3D%222%22%20value%3D%22Community%20Reporting%20and%20Feedback%22%20style%3D%22ellipse%3BwhiteSpace%3Dwrap%3Bhtml%3D1%3B%22%20vertex%3D%221%22%20parent%3D%221%22%3E%3CmxGeometry%20x%3D%22290%22%20y%3D%22300%22%20width%3D%22209%22%20height%3D%2240%22%20as%3D%22geometry%22%2F%3E%3C%2FmxCell%3E%3C%2Froot%3E%3C%2FmxGraphModel%3E&lt;/span&gt;" style="ellipse;whiteSpace=wrap;html=1;" vertex="1" parent="szmvQJgR_3cwjk-QeN5G-2">
          <mxGeometry x="131" y="260" width="209" height="40" as="geometry" />
        </mxCell>
        <mxCell id="szmvQJgR_3cwjk-QeN5G-13" value="Disaster Preparation Checklist" style="ellipse;whiteSpace=wrap;html=1;" vertex="1" parent="szmvQJgR_3cwjk-QeN5G-2">
          <mxGeometry x="131" y="310" width="209" height="40" as="geometry" />
        </mxCell>
        <mxCell id="szmvQJgR_3cwjk-QeN5G-14" value="Weather and Disaster Educational&amp;nbsp;&lt;div&gt;Resources&lt;/div&gt;" style="ellipse;whiteSpace=wrap;html=1;" vertex="1" parent="szmvQJgR_3cwjk-QeN5G-2">
          <mxGeometry x="131" y="370" width="209" height="50" as="geometry" />
        </mxCell>
        <mxCell id="szmvQJgR_3cwjk-QeN5G-15" value="BackUp and Data Sync" style="ellipse;whiteSpace=wrap;html=1;" vertex="1" parent="szmvQJgR_3cwjk-QeN5G-2">
          <mxGeometry x="141" y="430" width="209" height="30" as="geometry" />
        </mxCell>
        <mxCell id="szmvQJgR_3cwjk-QeN5G-16" value="Accessible Interface for Users&amp;nbsp;&lt;div&gt;with Disabilites&amp;nbsp;&lt;/div&gt;" style="ellipse;whiteSpace=wrap;html=1;" vertex="1" parent="szmvQJgR_3cwjk-QeN5G-2">
          <mxGeometry x="141" y="470" width="209" height="40" as="geometry" />
        </mxCell>
        <mxCell id="szmvQJgR_3cwjk-QeN5G-17" value="Sign Up" style="ellipse;whiteSpace=wrap;html=1;" vertex="1" parent="szmvQJgR_3cwjk-QeN5G-2">
          <mxGeometry x="120" y="600" width="86" height="20" as="geometry" />
        </mxCell>
        <mxCell id="szmvQJgR_3cwjk-QeN5G-18" value="Continue Without Sign In/ Sign Up" style="ellipse;whiteSpace=wrap;html=1;" vertex="1" parent="szmvQJgR_3cwjk-QeN5G-2">
          <mxGeometry x="271" y="630" width="209" height="20" as="geometry" />
        </mxCell>
        <mxCell id="szmvQJgR_3cwjk-QeN5G-19" value="Sign In" style="ellipse;whiteSpace=wrap;html=1;" vertex="1" parent="szmvQJgR_3cwjk-QeN5G-2">
          <mxGeometry x="250" y="600" width="90" height="20" as="geometry" />
        </mxCell>
        <mxCell id="szmvQJgR_3cwjk-QeN5G-20" value="Proceed to App" style="ellipse;whiteSpace=wrap;html=1;" vertex="1" parent="szmvQJgR_3cwjk-QeN5G-2">
          <mxGeometry x="141" y="530" width="209" height="30" as="geometry" />
        </mxCell>
        <mxCell id="szmvQJgR_3cwjk-QeN5G-22" value="" style="triangle;whiteSpace=wrap;html=1;rotation=-90;" vertex="1" parent="szmvQJgR_3cwjk-QeN5G-2">
          <mxGeometry x="236" y="556" width="10" height="20" as="geometry" />
        </mxCell>
        <mxCell id="szmvQJgR_3cwjk-QeN5G-25" value="" style="endArrow=none;html=1;rounded=0;" edge="1" parent="szmvQJgR_3cwjk-QeN5G-2">
          <mxGeometry width="50" height="50" relative="1" as="geometry">
            <mxPoint x="241" y="590" as="sourcePoint" />
            <mxPoint x="276" y="590" as="targetPoint" />
            <Array as="points">
              <mxPoint x="291" y="590" />
            </Array>
          </mxGeometry>
        </mxCell>
        <mxCell id="szmvQJgR_3cwjk-QeN5G-34" value="Forgot Password" style="ellipse;whiteSpace=wrap;html=1;" vertex="1" parent="szmvQJgR_3cwjk-QeN5G-2">
          <mxGeometry x="141" y="680" width="209" height="30" as="geometry" />
        </mxCell>
        <mxCell id="szmvQJgR_3cwjk-QeN5G-35" value="Reset Password" style="ellipse;whiteSpace=wrap;html=1;" vertex="1" parent="szmvQJgR_3cwjk-QeN5G-2">
          <mxGeometry x="141" y="720" width="209" height="30" as="geometry" />
        </mxCell>
        <mxCell id="szmvQJgR_3cwjk-QeN5G-36" value="Submit Emergency Report" style="ellipse;whiteSpace=wrap;html=1;" vertex="1" parent="szmvQJgR_3cwjk-QeN5G-2">
          <mxGeometry x="141" y="760" width="209" height="30" as="geometry" />
        </mxCell>
        <mxCell id="szmvQJgR_3cwjk-QeN5G-37" value="View Real Time Temperature" style="ellipse;whiteSpace=wrap;html=1;" vertex="1" parent="szmvQJgR_3cwjk-QeN5G-2">
          <mxGeometry x="141" y="810" width="209" height="30" as="geometry" />
        </mxCell>
        <mxCell id="szmvQJgR_3cwjk-QeN5G-38" value="View Disaster Alerts and Forecasts" style="ellipse;whiteSpace=wrap;html=1;" vertex="1" parent="szmvQJgR_3cwjk-QeN5G-2">
          <mxGeometry x="141" y="850" width="209" height="30" as="geometry" />
        </mxCell>
        <mxCell id="szmvQJgR_3cwjk-QeN5G-39" value="View Safety Guidline" style="ellipse;whiteSpace=wrap;html=1;" vertex="1" parent="szmvQJgR_3cwjk-QeN5G-2">
          <mxGeometry x="141" y="900" width="209" height="30" as="geometry" />
        </mxCell>
        <mxCell id="szmvQJgR_3cwjk-QeN5G-40" value="Recieve Notifications" style="ellipse;whiteSpace=wrap;html=1;" vertex="1" parent="szmvQJgR_3cwjk-QeN5G-2">
          <mxGeometry x="141" y="950" width="209" height="30" as="geometry" />
        </mxCell>
        <mxCell id="szmvQJgR_3cwjk-QeN5G-41" value="Manage Contacts" style="ellipse;whiteSpace=wrap;html=1;" vertex="1" parent="szmvQJgR_3cwjk-QeN5G-2">
          <mxGeometry x="141" y="1000" width="209" height="30" as="geometry" />
        </mxCell>
        <mxCell id="szmvQJgR_3cwjk-QeN5G-42" value="Request Emergency Help" style="ellipse;whiteSpace=wrap;html=1;" vertex="1" parent="szmvQJgR_3cwjk-QeN5G-2">
          <mxGeometry x="141" y="1049" width="209" height="30" as="geometry" />
        </mxCell>
        <mxCell id="szmvQJgR_3cwjk-QeN5G-43" value="View Real Time Map" style="ellipse;whiteSpace=wrap;html=1;" vertex="1" parent="szmvQJgR_3cwjk-QeN5G-2">
          <mxGeometry x="141" y="1100" width="209" height="30" as="geometry" />
        </mxCell>
        <mxCell id="szmvQJgR_3cwjk-QeN5G-44" value="Manage Checklist" style="ellipse;whiteSpace=wrap;html=1;" vertex="1" parent="szmvQJgR_3cwjk-QeN5G-2">
          <mxGeometry x="141" y="1140" width="209" height="30" as="geometry" />
        </mxCell>
        <mxCell id="szmvQJgR_3cwjk-QeN5G-46" value="Location Based Alerts" style="ellipse;whiteSpace=wrap;html=1;" vertex="1" parent="szmvQJgR_3cwjk-QeN5G-2">
          <mxGeometry x="340" y="880" width="180" height="30" as="geometry" />
        </mxCell>
        <mxCell id="szmvQJgR_3cwjk-QeN5G-47" value="Multi Language Support" style="ellipse;whiteSpace=wrap;html=1;" vertex="1" parent="szmvQJgR_3cwjk-QeN5G-2">
          <mxGeometry x="141" y="1180" width="209" height="30" as="geometry" />
        </mxCell>
        <mxCell id="szmvQJgR_3cwjk-QeN5G-48" value="volunteer Sign Up" style="ellipse;whiteSpace=wrap;html=1;" vertex="1" parent="szmvQJgR_3cwjk-QeN5G-2">
          <mxGeometry x="141" y="1230" width="209" height="30" as="geometry" />
        </mxCell>
        <mxCell id="szmvQJgR_3cwjk-QeN5G-49" value="volunteer Coordination and Support" style="ellipse;whiteSpace=wrap;html=1;" vertex="1" parent="szmvQJgR_3cwjk-QeN5G-2">
          <mxGeometry x="150" y="1280" width="209" height="30" as="geometry" />
        </mxCell>
        <mxCell id="szmvQJgR_3cwjk-QeN5G-50" value="Emergency Rescure Request" style="ellipse;whiteSpace=wrap;html=1;" vertex="1" parent="szmvQJgR_3cwjk-QeN5G-2">
          <mxGeometry x="150" y="1320" width="209" height="30" as="geometry" />
        </mxCell>
        <mxCell id="szmvQJgR_3cwjk-QeN5G-4" value="&lt;font style=&quot;font-size: 22px;&quot;&gt;DisasterGuard&lt;/font&gt;" style="text;html=1;align=center;verticalAlign=middle;whiteSpace=wrap;rounded=0;" vertex="1" parent="1">
          <mxGeometry x="340" y="50" width="120" height="30" as="geometry" />
        </mxCell>
        <mxCell id="szmvQJgR_3cwjk-QeN5G-24" value="" style="endArrow=none;html=1;rounded=0;entryX=0;entryY=0.5;entryDx=0;entryDy=0;" edge="1" parent="1" target="szmvQJgR_3cwjk-QeN5G-22">
          <mxGeometry width="50" height="50" relative="1" as="geometry">
            <mxPoint x="400" y="670" as="sourcePoint" />
            <mxPoint x="470" y="640" as="targetPoint" />
            <Array as="points">
              <mxPoint x="400" y="680" />
              <mxPoint x="400" y="670" />
            </Array>
          </mxGeometry>
        </mxCell>
        <mxCell id="szmvQJgR_3cwjk-QeN5G-29" value="" style="endArrow=none;html=1;rounded=0;" edge="1" parent="1">
          <mxGeometry width="50" height="50" relative="1" as="geometry">
            <mxPoint x="360" y="680" as="sourcePoint" />
            <mxPoint x="400" y="680" as="targetPoint" />
            <Array as="points">
              <mxPoint x="320" y="680" />
              <mxPoint x="360" y="680" />
            </Array>
          </mxGeometry>
        </mxCell>
        <mxCell id="szmvQJgR_3cwjk-QeN5G-30" value="" style="endArrow=none;html=1;rounded=0;exitX=0.476;exitY=0.032;exitDx=0;exitDy=0;exitPerimeter=0;" edge="1" parent="1" source="szmvQJgR_3cwjk-QeN5G-17">
          <mxGeometry width="50" height="50" relative="1" as="geometry">
            <mxPoint x="380" y="720" as="sourcePoint" />
            <mxPoint x="320" y="680" as="targetPoint" />
          </mxGeometry>
        </mxCell>
        <mxCell id="szmvQJgR_3cwjk-QeN5G-31" value="" style="endArrow=none;html=1;rounded=0;exitX=0.461;exitY=0.035;exitDx=0;exitDy=0;exitPerimeter=0;" edge="1" parent="1" source="szmvQJgR_3cwjk-QeN5G-19">
          <mxGeometry width="50" height="50" relative="1" as="geometry">
            <mxPoint x="420" y="720" as="sourcePoint" />
            <mxPoint x="450" y="680" as="targetPoint" />
          </mxGeometry>
        </mxCell>
        <mxCell id="szmvQJgR_3cwjk-QeN5G-32" value="" style="endArrow=none;html=1;rounded=0;" edge="1" parent="1">
          <mxGeometry width="50" height="50" relative="1" as="geometry">
            <mxPoint x="450" y="680" as="sourcePoint" />
            <mxPoint x="550" y="680" as="targetPoint" />
            <Array as="points">
              <mxPoint x="550" y="680" />
            </Array>
          </mxGeometry>
        </mxCell>
        <mxCell id="szmvQJgR_3cwjk-QeN5G-33" value="" style="endArrow=none;html=1;rounded=0;" edge="1" parent="1">
          <mxGeometry width="50" height="50" relative="1" as="geometry">
            <mxPoint x="549" y="720" as="sourcePoint" />
            <mxPoint x="550" y="680" as="targetPoint" />
          </mxGeometry>
        </mxCell>
      </root>
    </mxGraphModel>
  </diagram>
</mxfile>
